<?xml version="1.0" standalone="no"?>
<!DOCTYPE svg PUBLIC "-//W3C//DTD SVG 20010904//EN"
 "http://www.w3.org/TR/2001/REC-SVG-20010904/DTD/svg10.dtd">
<svg version="1.0" xmlns="http://www.w3.org/2000/svg"
 width="226.000000pt" height="223.000000pt" viewBox="0 0 226.000000 223.000000"
 preserveAspectRatio="xMidYMid meet">

<g transform="translate(0.000000,223.000000) scale(0.100000,-0.100000)"
fill="#000000" stroke="none">
<path d="M275 2065 c-9 -91 1 -296 21 -455 65 -513 305 -941 722 -1288 35 -28
65 -52 68 -52 3 0 38 27 78 59 233 191 411 413 535 671 140 289 201 584 201
963 l0 179 -67 -8 c-38 -4 -146 -8 -240 -8 l-173 0 0 -34 0 -35 -52 7 c-73 9
-217 45 -252 63 -26 13 -34 12 -96 -11 -64 -23 -209 -56 -251 -56 -15 0 -19 7
-19 33 l0 32 -172 0 c-95 1 -201 4 -235 8 l-61 8 -7 -76z m1233 -77 c15 -15
16 -64 2 -73 -7 -4 -8 -24 -4 -50 3 -25 1 -51 -5 -62 -8 -14 -10 -14 -11 -3 0
9 -11 32 -25 52 -30 45 -30 49 -4 79 13 15 18 31 14 46 -6 25 12 32 33 11z
m-819 -17 c9 -6 21 -5 32 2 14 8 27 8 52 -1 18 -7 45 -12 59 -12 15 0 33 -7
42 -15 8 -8 18 -15 23 -15 10 0 69 -227 61 -235 -5 -5 -509 -8 -514 -2 -2 1
10 53 26 116 29 116 41 136 90 146 14 3 36 10 50 14 34 12 62 12 79 2z m864
-71 c6 -23 -10 -37 -24 -23 -10 10 -2 43 11 43 4 0 10 -9 13 -20z m-122 -58
c26 -16 41 -52 20 -52 -26 0 -70 24 -81 45 -11 21 -10 28 6 52 l19 28 3 -28
c2 -19 13 -34 33 -45z m109 -112 c0 -5 -4 -10 -9 -10 -4 0 -14 -34 -21 -75
-12 -71 -14 -75 -40 -75 -25 0 -27 3 -38 72 -6 40 -16 74 -21 76 -6 2 -11 8
-11 13 0 5 32 9 70 9 40 0 70 -4 70 -10z m-347 -348 c42 -42 63 -73 37 -57
-17 11 -50 -5 -50 -25 0 -17 -2 -18 -32 -3 -35 18 -56 11 -75 -28 l-12 -23
-10 27 c-14 35 -37 44 -60 23 -18 -16 -19 -16 -25 8 -3 14 -17 28 -32 33 l-26
9 47 43 c40 37 52 43 79 38 18 -3 39 -1 47 4 24 16 62 -1 112 -49z m-222 -172
c21 -12 25 -40 9 -56 -8 -8 -6 -15 5 -24 21 -17 19 -57 -4 -70 -11 -5 -50 -10
-87 -10 -64 0 -66 1 -59 23 14 41 18 117 6 117 -6 0 -11 7 -11 15 0 12 13 15
61 15 33 0 69 -5 80 -10z m330 0 c21 -12 26 -54 8 -66 -8 -5 -6 -10 5 -16 9
-5 16 -17 16 -26 0 -10 5 -23 12 -30 13 -13 10 -19 -12 -22 -38 -6 -52 2 -66
35 -8 19 -17 35 -20 35 -4 0 -3 -16 0 -35 l7 -35 -46 0 c-32 0 -45 4 -45 14 0
8 5 18 10 21 14 9 13 102 -2 107 -6 2 -8 10 -4 16 9 15 110 16 137 2z m-211
-66 c0 -15 4 -23 10 -19 6 4 8 15 5 26 -5 16 -1 19 24 19 34 0 39 -11 17 -30
-8 -6 -20 -28 -27 -48 -6 -20 -16 -43 -21 -49 -8 -10 47 -13 256 -15 l266 -3
-52 -93 c-28 -50 -82 -134 -121 -185 -83 -112 -339 -367 -367 -367 -30 0 -293
269 -370 378 -64 91 -160 249 -160 264 0 4 104 8 230 8 198 0 230 2 230 15 0
18 21 20 39 3 11 -11 12 -8 6 12 -11 35 -33 78 -45 85 -20 12 1 25 41 25 35 0
39 -2 39 -26z"/>
<path d="M593 1903 c15 -2 37 -2 50 0 12 2 0 4 -28 4 -27 0 -38 -2 -22 -4z"/>
<path d="M753 1903 c9 -2 25 -2 35 0 9 3 1 5 -18 5 -19 0 -27 -2 -17 -5z"/>
<path d="M588 1793 c12 -2 32 -2 45 0 12 2 2 4 -23 4 -25 0 -35 -2 -22 -4z"/>
<path d="M808 1793 c7 -3 16 -2 19 1 4 3 -2 6 -13 5 -11 0 -14 -3 -6 -6z"/>
<path d="M910 1171 c0 -12 5 -21 10 -21 6 0 10 6 10 14 0 8 -4 18 -10 21 -5 3
-10 -3 -10 -14z"/>
<path d="M910 1100 c0 -11 5 -20 10 -20 6 0 10 9 10 20 0 11 -4 20 -10 20 -5
0 -10 -9 -10 -20z"/>
<path d="M1240 1170 c0 -19 3 -21 12 -12 9 9 9 15 0 24 -9 9 -12 7 -12 -12z"/>
<path d="M98 2093 c-26 -30 -49 -83 -42 -95 4 -6 3 -8 -3 -5 -13 8 -27 -39
-17 -55 4 -7 3 -8 -4 -4 -7 4 -12 15 -12 24 -1 16 -1 16 -11 0 -6 -11 -9 -179
-7 -460 2 -361 5 -442 16 -440 8 1 11 -2 8 -7 -4 -5 2 -14 11 -20 10 -6 14
-11 9 -11 -5 0 -18 7 -28 17 -17 15 -18 14 -18 -31 0 -53 27 -106 42 -84 7 10
9 9 5 -4 -7 -20 30 -71 45 -62 6 4 8 3 5 -3 -9 -14 22 -55 35 -47 6 4 8 2 4
-4 -3 -6 -1 -14 4 -17 6 -4 22 -30 36 -58 33 -71 97 -152 117 -151 9 1 14 -2
11 -7 -3 -5 22 -26 55 -47 61 -40 137 -66 228 -77 66 -9 126 -48 184 -120 46
-58 62 -59 33 -3 -30 58 -93 126 -140 148 -25 12 -59 40 -76 61 -17 21 -35 36
-41 32 -6 -3 -7 -1 -4 4 4 6 -2 22 -14 37 -11 14 -44 63 -73 109 -36 58 -57
83 -69 81 -9 -1 -15 2 -11 7 3 5 10 7 15 4 14 -9 12 -5 -30 86 -21 46 -49 116
-62 154 l-24 70 -5 -60 c-5 -59 -5 -60 -12 -20 -4 22 -10 69 -14 105 l-8 65
-12 -50 -12 -50 -1 60 c-1 67 -15 164 -34 240 l-12 50 -6 -45 c-4 -28 -7 2 -8
80 -1 125 -11 143 -28 55 -6 -32 -9 -14 -13 85 l-5 125 -17 -45 -16 -45 -1 35
c-1 44 24 152 44 190 13 25 13 29 1 24 -23 -9 -28 51 -12 126 8 36 13 66 12
68 -2 1 -10 -6 -18 -15z m-21 -1058 c0 -8 -4 -12 -9 -9 -5 3 -6 10 -3 15 9 13
12 11 12 -6z"/>
<path d="M2064 2080 c15 -53 19 -162 6 -170 -10 -6 -9 -17 3 -51 16 -42 37
-146 37 -178 0 -24 -17 0 -28 39 -8 29 -11 13 -12 -85 -2 -115 -2 -119 -16
-85 -33 80 -34 77 -31 -55 3 -98 2 -121 -6 -95 l-10 35 -14 -50 c-7 -27 -16
-101 -20 -163 -3 -62 -10 -115 -15 -118 -5 -3 -8 -2 -7 3 1 4 0 37 -1 73 l-2
65 -17 -112 c-18 -124 -31 -154 -31 -72 l-1 54 -24 -73 c-14 -40 -22 -79 -19
-85 4 -7 4 -9 0 -5 -4 3 -34 -47 -66 -111 -83 -166 -227 -361 -266 -361 -25 0
-133 -115 -155 -165 -24 -53 -20 -69 6 -29 33 50 99 116 136 134 20 11 65 24
100 30 106 17 183 45 172 63 -3 6 -1 7 5 3 31 -19 162 107 207 198 14 28 37
64 50 80 13 17 21 34 19 38 -3 5 -1 7 5 6 16 -4 123 133 116 149 -2 8 0 11 5
8 12 -8 60 91 60 124 0 23 0 23 -22 -5 -35 -47 -81 -94 -92 -94 -6 0 6 17 26
38 19 20 50 57 67 81 27 39 31 52 31 110 l-1 66 -36 -40 c-20 -22 -32 -31 -28
-20 30 72 55 159 51 171 -3 8 -1 14 4 14 6 0 10 21 9 48 0 26 -3 41 -6 35 -11
-29 -20 -10 -12 25 11 46 10 218 -1 252 -7 22 -8 21 -9 -12 -1 -43 -21 -52
-22 -10 -1 33 -46 214 -48 190 -2 -32 -16 -19 -31 30 -8 26 -20 46 -27 45 -7
-2 -10 3 -7 10 2 7 -5 22 -17 33 l-22 19 7 -25z m-20 -1246 c5 -14 4 -15 -9
-4 -17 14 -19 20 -6 20 5 0 12 -7 15 -16z"/>
<path d="M314 205 c-6 -45 -24 -73 -24 -39 0 13 -3 15 -11 7 -15 -15 -3 -33
21 -33 13 0 22 9 26 28 3 15 10 39 14 55 7 20 6 27 -5 27 -9 0 -16 -17 -21
-45z"/>
<path d="M1814 224 c-8 -32 5 -73 28 -87 37 -24 64 44 38 94 -16 29 -58 25
-66 -7z m56 -25 c9 -31 9 -44 0 -53 -16 -16 -40 20 -40 61 0 48 27 43 40 -8z"/>
<path d="M384 181 l-10 -59 28 -4 c18 -3 28 0 28 8 0 8 -6 11 -17 7 -14 -5
-15 -1 -9 36 3 23 7 47 9 53 1 6 -3 12 -9 14 -6 3 -14 -21 -20 -55z"/>
<path d="M1733 208 c3 -13 9 -40 12 -60 4 -21 12 -38 17 -38 5 0 7 14 3 33 -6
30 -5 31 9 13 8 -10 17 -23 19 -29 1 -5 9 -8 16 -6 9 3 7 11 -8 30 -14 19 -17
29 -9 37 19 19 1 42 -33 42 -27 0 -30 -3 -26 -22z m42 2 c3 -5 3 -15 -1 -21
-6 -11 -23 6 -24 24 0 10 18 9 25 -3z"/>
<path d="M522 176 c-1 -22 -5 -49 -8 -59 -5 -16 -1 -18 28 -15 32 3 33 4 35
54 3 50 2 52 -26 56 -26 4 -28 2 -29 -36z m38 4 c0 -11 -4 -20 -10 -20 -5 0
-10 9 -10 20 0 11 5 20 10 20 6 0 10 -9 10 -20z m0 -50 c0 -11 -7 -20 -15 -20
-15 0 -21 21 -8 33 12 13 23 7 23 -13z"/>
<path d="M1667 178 c4 -24 7 -51 7 -60 0 -11 8 -18 18 -18 15 0 17 4 8 19 -13
25 -13 44 0 36 6 -3 10 1 10 10 0 9 -4 14 -9 11 -5 -3 -12 1 -15 10 -9 24 -8
27 14 21 11 -3 20 -1 20 4 0 5 -14 9 -30 9 -30 0 -30 0 -23 -42z"/>
<path d="M598 162 c-3 -26 -1 -55 4 -64 9 -20 33 -24 43 -8 3 6 -1 7 -9 4 -22
-9 -30 19 -18 66 7 30 7 40 -3 44 -9 3 -14 -9 -17 -42z"/>
<path d="M1587 203 c-3 -5 5 -32 16 -61 21 -56 37 -55 36 3 0 23 -2 26 -8 12
-6 -17 -8 -16 -19 8 -7 14 -10 31 -7 36 4 5 2 9 -4 9 -5 0 -12 -3 -14 -7z"/>
<path d="M687 193 c-12 -12 -7 -50 8 -63 8 -7 15 -19 15 -26 0 -17 -27 -18
-33 -1 -3 7 -6 5 -6 -5 -1 -13 7 -18 24 -18 36 0 46 46 15 70 -15 11 -20 22
-15 30 6 10 11 9 22 -5 11 -16 13 -16 13 -3 0 9 -7 19 -16 22 -19 7 -19 7 -27
-1z"/>
<path d="M1497 170 c3 -19 1 -30 -6 -30 -6 0 -11 11 -11 25 0 14 -6 25 -14 25
-10 0 -12 -9 -5 -42 4 -24 8 -49 9 -55 0 -7 5 -13 11 -13 7 0 9 10 5 28 -6 26
-6 26 9 8 8 -11 15 -23 15 -28 0 -4 7 -8 16 -8 15 0 15 2 2 23 -9 13 -13 35
-11 53 4 22 0 33 -11 37 -12 5 -14 1 -9 -23z"/>
<path d="M1541 168 c5 -18 9 -46 9 -62 0 -21 3 -27 11 -19 14 14 0 113 -17
113 -10 0 -10 -8 -3 -32z"/>
<path d="M740 180 c0 -5 7 -7 15 -4 14 6 14 -20 0 -88 -2 -11 3 -18 11 -18 10
0 14 14 14 55 0 51 12 72 23 43 3 -8 6 -6 6 5 1 13 -7 17 -34 17 -19 0 -35 -4
-35 -10z"/>
<path d="M1353 183 c-10 -4 -9 -11 2 -33 8 -16 15 -40 15 -55 0 -14 6 -25 13
-25 7 0 12 15 12 39 1 22 -2 38 -6 35 -4 -2 -11 6 -16 19 -4 13 -14 22 -20 20z"/>
<path d="M1400 175 c0 -8 2 -15 4 -15 2 0 6 7 10 15 3 8 1 15 -4 15 -6 0 -10
-7 -10 -15z"/>
<path d="M830 171 c0 -5 -3 -17 -7 -27 -4 -12 -3 -15 5 -10 7 4 12 1 12 -9 0
-11 -5 -15 -15 -11 -8 3 -15 1 -15 -4 0 -6 9 -10 21 -10 15 0 19 -5 15 -15 -3
-9 0 -15 10 -15 10 0 14 6 10 18 -3 9 -8 34 -12 55 -3 20 -10 37 -15 37 -5 0
-9 -4 -9 -9z"/>
<path d="M898 155 c2 -14 8 -28 13 -31 5 -3 9 -16 9 -30 0 -13 5 -24 10 -24 6
0 10 6 10 14 0 8 3 22 7 32 4 11 3 15 -4 11 -6 -4 -13 6 -17 23 -3 17 -12 30
-19 30 -10 0 -13 -8 -9 -25z"/>
<path d="M959 173 c-7 -45 -2 -113 9 -113 8 0 12 19 12 60 0 33 -4 60 -10 60
-5 0 -11 -3 -11 -7z"/>
<path d="M1025 169 c-18 -51 -32 -109 -25 -109 5 0 13 19 17 43 l9 42 7 -42
c5 -27 13 -43 21 -43 12 0 12 9 -1 58 -17 64 -20 71 -28 51z"/>
<path d="M1080 171 c0 -5 6 -16 13 -23 7 -7 19 -28 26 -46 22 -52 31 -47 31
17 0 34 -4 61 -8 61 -5 0 -7 -15 -5 -32 l3 -33 -17 33 c-15 29 -43 44 -43 23z"/>
<path d="M1161 163 c0 -11 3 -13 6 -5 12 31 25 8 21 -43 -2 -42 0 -55 11 -55
10 0 12 13 8 55 -5 50 4 73 16 43 3 -8 6 -6 6 5 1 13 -7 17 -34 17 -27 0 -35
-4 -34 -17z"/>
<path d="M1248 119 c4 -58 5 -60 30 -57 14 2 27 9 28 16 1 7 0 8 -3 2 -10 -21
-33 -10 -33 16 0 14 4 23 10 19 6 -3 10 1 10 10 0 9 -4 13 -10 10 -5 -3 -10 4
-10 15 0 16 5 20 15 16 8 -3 15 -1 15 4 0 6 -12 10 -27 10 -28 0 -28 0 -25
-61z"/>
<path d="M652 140 c0 -19 2 -27 5 -17 2 9 2 25 0 35 -3 9 -5 1 -5 -18z"/>
<path d="M340 140 c0 -5 5 -10 10 -10 6 0 10 5 10 10 0 6 -4 10 -10 10 -5 0
-10 -4 -10 -10z"/>
<path d="M440 120 c0 -5 5 -10 10 -10 6 0 10 5 10 10 0 6 -4 10 -10 10 -5 0
-10 -4 -10 -10z"/>
<path d="M795 80 c-3 -5 1 -10 10 -10 9 0 13 5 10 10 -3 6 -8 10 -10 10 -2 0
-7 -4 -10 -10z"/>
</g>
</svg>
